<svg xmlns="http://www.w3.org/2000/svg" xmlns:xlink="http://www.w3.org/1999/xlink" width="194" height="30" viewBox="0 0 194 30">
  <defs>
    <clipPath id="clip-logo">
      <rect width="194" height="30"/>
    </clipPath>
  </defs>
  <g id="logo" clip-path="url(#clip-logo)">
    <g id="Group_9" data-name="Group 9" transform="translate(23 -27)">
      <text id="JustExchange" transform="translate(25 51)" font-size="24" font-family="Lato-Bold, Lato" font-weight="700"><tspan x="0" y="0">JustExchange</tspan></text>
      <path id="exchange-alt" d="M0,62.782V61.81a1.458,1.458,0,0,1,1.458-1.458H23.33V57.436A1.459,1.459,0,0,1,25.819,56.4l4.86,4.86a1.458,1.458,0,0,1,0,2.062l-4.86,4.86a1.459,1.459,0,0,1-2.489-1.031V64.24H1.458A1.458,1.458,0,0,1,0,62.782Zm29.648,9.235H7.777V69.1a1.459,1.459,0,0,0-2.489-1.031L.427,72.93a1.458,1.458,0,0,0,0,2.062l4.86,4.86a1.459,1.459,0,0,0,2.489-1.031V75.905H29.648a1.458,1.458,0,0,0,1.458-1.458v-.972A1.458,1.458,0,0,0,29.648,72.017Z" transform="translate(-21 -26.976)"/>
    </g>
  </g>
</svg>
